Source: Uffie-Pop_The_Glock-WEB-x264-2010-FRAY_INT

Encoded for PSP, iPod, and Zune

I hope y'all enjoy this. I like listen to Uffie when I am driving around late at night and while I am laying in bed before I go to sleep. It's an iteresting style, I think. (^_^) 

Video Specs:
Format                           : MPEG-4
Codec ID                         : M4V 
File size                        : 15.7 MiB
Duration                         : 3mn 28s
Overall bit rate                 : 633 Kbps
Movie name                       : Uffie - Pop The Glock mvid
Encoded date                     : 2010
Writing application              : Lavf52.33.0

Video
ID                               : 1
Format                           : AVC
Format/Info                      : Advanced Video Codec
Format profile                   : Baseline@L1.3
Format settings, CABAC           : No
Format settings, ReFrames        : 1 frame
Codec ID                         : avc1
Codec ID/Info                    : Advanced Video Coding
Duration                         : 3mn 27s
Bit rate mode                    : Variable
Bit rate                         : 500 Kbps
Width                            : 320 pixels
Height                           : 240 pixels
Display aspect ratio             : 4:3
Frame rate mode                  : Constant
Frame rate                       : 29.970 fps
Color space                      : YUV
Chroma subsampling               : 4:2:0
Bit depth                        : 8 bits
Scan type                        : Progressive
Bits/(Pixel*Frame)               : 0.217
Stream size                      : 12.4 MiB (79%)

Audio
ID                               : 2
Format                           : AAC
Format/Info                      : Advanced Audio Codec
Format version                   : Version 4
Format profile                   : LC
Format settings, SBR             : No
Codec ID                         : 40
Duration                         : 3mn 28s
Bit rate mode                    : Variable
Bit rate                         : 128 Kbps
Channel(s)                       : 2 channels
Channel positions                : Front: L R
Sampling rate                    : 48.0 KHz
Stream size                      : 3.18 MiB (20%)

